<?xml version="1.0" encoding="UTF-8"?>
<svg xmlns="http://www.w3.org/2000/svg" xmlns:xlink="http://www.w3.org/1999/xlink" viewBox="0 0 100 100" width="100px" height="100px">
<g id="surface138188193">
<path style=" stroke:none;fill-rule:nonzero;fill:rgb(100%,44.705883%,36.078432%);fill-opacity:1;" d="M 10 4 C 6.695312 4 4 6.695312 4 10 L 4 70 C 4 73.304688 6.695312 76 10 76 L 90 76 C 93.304688 76 96 73.304688 96 70 L 96 10 C 96 6.695312 93.304688 4 90 4 Z M 14 14 L 86 14 L 86 66 L 14 66 Z M 38.5625 22.5625 L 22.5625 38.5625 L 21.1875 40 L 22.5625 41.4375 L 38.5625 57.4375 L 41.4375 54.5625 L 26.875 40 L 41.4375 25.4375 Z M 61.4375 22.5625 L 58.5625 25.4375 L 73.125 40 L 58.5625 54.5625 L 61.4375 57.4375 L 77.4375 41.4375 L 78.8125 40 L 77.4375 38.5625 Z M 40 78 L 40 86 L 60 86 L 60 78 Z M 20 80 C 19.40625 80 18.820312 80.234375 18.4375 80.6875 L 8.4375 92.6875 C 7.9375 93.289062 7.859375 94.171875 8.1875 94.875 C 8.515625 95.578125 9.226562 96 10 96 L 90 96 C 90.773438 96 91.484375 95.578125 91.8125 94.875 C 92.140625 94.171875 92.054688 93.289062 91.5625 92.6875 L 81.5625 80.6875 C 81.179688 80.234375 80.59375 80 80 80 L 64 80 L 64 90 L 36 90 L 36 80 Z M 20 80 "/>
</g>
</svg>
