<?xml version="1.0" encoding="UTF-8"?>
<svg xmlns="http://www.w3.org/2000/svg" xmlns:xlink="http://www.w3.org/1999/xlink" viewBox="0 0 100 100" width="100px" height="100px">
<g id="surface138468447">
<path style=" stroke:none;fill-rule:nonzero;fill:rgb(100%,44.705883%,36.078432%);fill-opacity:1;" d="M 70.890625 4.023438 C 70.113281 4.050781 69.339844 4.253906 68.644531 4.617188 C 70.453125 5.511719 71.730469 7.28125 71.941406 9.382812 C 71.976562 9.636719 72 9.863281 72 9.976562 L 72 89.976562 C 72 92.347656 70.613281 94.382812 68.617188 95.355469 C 69.34375 95.753906 70.15625 95.976562 71 95.976562 C 71.746094 95.976562 72.449219 95.804688 73.085938 95.511719 L 73.089844 95.519531 C 76.304688 93.855469 92.382812 85.53125 92.976562 85.191406 C 94.84375 84.121094 96 82.121094 96 79.976562 L 96 19.976562 C 96 17.980469 95.011719 16.125 93.355469 15.007812 C 92.714844 14.574219 73.164062 4.472656 73.164062 4.472656 L 73.160156 4.480469 C 72.449219 4.144531 71.667969 3.996094 70.890625 4.023438 Z M 66 7.976562 C 65.488281 7.976562 64.976562 8.171875 64.585938 8.5625 C 64.585938 8.5625 53.136719 21.4375 40.460938 35.679688 L 55.449219 47.941406 L 68 37.371094 L 68 9.976562 C 68 9.464844 67.804688 8.953125 67.414062 8.5625 C 67.023438 8.171875 66.511719 7.976562 66 7.976562 Z M 16 21.976562 C 15.6875 21.976562 15.109375 21.976562 12.511719 23.179688 C 11.082031 23.839844 6.101562 26.457031 6.101562 26.457031 C 5.441406 26.816406 4.910156 27.375 4.535156 28.023438 C 4.6875 28 4.839844 27.976562 4.996094 27.976562 L 5 27.976562 C 6.335938 27.976562 7.15625 28.910156 7.445312 29.210938 C 7.445312 29.210938 63.859375 90.664062 64.585938 91.390625 C 64.976562 91.78125 65.484375 91.976562 65.996094 91.976562 C 66.507812 91.976562 67.019531 91.78125 67.410156 91.390625 C 67.800781 91 68 90.488281 68 89.976562 L 68 63.316406 C 68 63.316406 19.066406 23.324219 18.6875 23.015625 C 17.953125 22.347656 16.992188 21.976562 16 21.976562 Z M 4.398438 31.976562 C 4.179688 31.976562 4 32.15625 4 32.378906 L 4 69.589844 C 4 69.804688 4.175781 69.980469 4.390625 69.980469 C 4.503906 69.980469 4.601562 69.929688 4.671875 69.851562 L 16 57.277344 L 16 44.015625 L 4.683594 32.09375 C 4.613281 32.023438 4.507812 31.976562 4.398438 31.976562 Z M 24.507812 53.605469 C 24.507812 53.605469 7.316406 72.90625 7.121094 73.101562 C 6.578125 73.644531 5.828125 73.976562 5 73.976562 C 4.84375 73.976562 4.691406 73.957031 4.542969 73.933594 C 4.945312 74.636719 5.539062 75.214844 6.273438 75.570312 L 6.265625 75.582031 C 8.003906 76.464844 13.746094 79.382812 14.503906 79.691406 C 14.980469 79.882812 15.480469 79.976562 16 79.976562 C 16.695312 79.976562 17.378906 79.796875 17.996094 79.445312 C 18.042969 79.417969 35.054688 65.105469 35.054688 65.105469 Z M 24.507812 53.605469 "/>
</g>
</svg>
