<?xml version="1.0" encoding="UTF-8"?>
<svg xmlns="http://www.w3.org/2000/svg" xmlns:xlink="http://www.w3.org/1999/xlink" viewBox="0 0 100 100" width="100px" height="100px">
<g id="surface138480142">
<path style=" stroke:none;fill-rule:nonzero;fill:rgb(100%,44.705883%,36.078432%);fill-opacity:1;" d="M 0 26.039062 L 16 77.960938 L 26.179688 45.960938 L 36 77.960938 L 50.734375 32.03125 L 63.25 32.03125 L 52 48.9375 L 52 52 L 54.617188 52 C 64.914062 52 66 58.28125 66 61.382812 C 66 70.46875 59.960938 71.96875 58.125 71.96875 C 56.382812 71.96875 54.867188 71.023438 53.585938 69.898438 C 52.296875 68.773438 51.257812 67.234375 50.46875 65.28125 L 45.101562 67.445312 C 46.195312 70.671875 47.875 73.234375 50.148438 75.125 C 52.414062 77.015625 55.070312 77.960938 58.125 77.960938 C 62.1875 77.960938 65.492188 76.367188 68.046875 73.1875 C 70.601562 70 71.875 66.070312 71.875 61.390625 C 71.875 56.742188 69.75 48.257812 60 46.523438 L 72 29.460938 L 72 26.039062 L 45.492188 26.039062 L 36 57.75 L 26.507812 26.039062 L 19.640625 26.039062 L 22.78125 36.59375 L 16.359375 57.75 L 6.875 26.039062 Z M 98 26.039062 L 94.625 32.828125 C 94.625 32.828125 92.960938 29.828125 91.3125 28.460938 C 89.75 27.15625 87.71875 25.953125 85.148438 26.210938 C 82.664062 26.460938 79.867188 28.585938 77.976562 32.132812 C 75.84375 36.164062 75.109375 40.25 75.09375 44.757812 C 75.078125 51.070312 77.46875 55.382812 77.46875 55.382812 C 77.46875 55.382812 76.921875 53.375 77.007812 49.984375 C 77.070312 47.867188 77.085938 45.570312 78.71875 40.8125 C 80.09375 36.835938 83.234375 33.609375 86.007812 33.054688 C 88.164062 32.617188 89.539062 32.9375 91.65625 34.382812 C 94.171875 36.109375 96 39.226562 96 39.226562 L 100 31.882812 Z M 72.664062 62.695312 C 72.664062 62.695312 73.640625 65.757812 74.25 67.0625 C 74.59375 67.8125 75.671875 70.101562 77.195312 72.09375 C 78.617188 73.953125 81.375 77.15625 85.570312 77.875 C 89.773438 78.601562 92.65625 76.765625 93.375 76.320312 C 94.085938 75.875 95.59375 74.648438 96.539062 73.65625 C 97.539062 72.617188 98.476562 71.296875 99 70.507812 C 99.375 69.929688 100 68.757812 100 68.757812 L 99 63.664062 C 99 63.664062 97.257812 66.695312 96.171875 67.867188 C 95.085938 69.039062 93.140625 71.09375 90.75 72.125 C 88.351562 73.148438 87.085938 73.34375 84.71875 73.125 C 82.351562 72.898438 80.148438 71.5625 79.375 71.007812 C 78.609375 70.453125 76.640625 68.8125 75.523438 67.28125 C 74.40625 65.75 72.664062 62.695312 72.664062 62.695312 Z M 72.664062 62.695312 "/>
</g>
</svg>
